<svg xmlns="http://www.w3.org/2000/svg" viewBox="0 0 436.89 186.56"><defs><style>.cls-1{fill:#69c;}.cls-1,.cls-2,.cls-3,.cls-4,.cls-5{stroke:#231f20;stroke-miterlimit:10;}.cls-2{fill:#1c75bc;}.cls-3{fill:#0e2749;}.cls-4{fill:#1a325d;}.cls-5{fill:#aededa;}</style></defs><g id="Layer_2" data-name="Layer 2"><g id="Layer_1-2" data-name="Layer 1"><path class="cls-1" d="M.71,56.85c-2.29-1.61,13.91-51,46.78-54.12C59.35,1.59,76.28,6.19,83.26,20.16c8.32,16.65-1.1,39.46-11,41.27-12.34,2.26-19.53-29.13-39-29.81C15,31,2.47,58.08.71,56.85Z"/><path class="cls-1" d="M109.4,19.63C107.54,18.48,90.9,31,94.27,44.85c1.92,7.94,10.35,16.23,17.88,14.21,8-2.13,11.86-15,8.72-18.34s-11.57,3.39-15.14,0C101.07,36.29,111.23,20.74,109.4,19.63Z"/><path class="cls-1" d="M113.07,13.66c-2-.86-2.43-7.62.92-11,1.43-1.45,4.06-2.8,5.5-1.84,1.86,1.24.58,5.57.46,6C118.74,10.74,114.91,14.44,113.07,13.66Z"/><path class="cls-1" d="M132.63,20.55C131.2,18.53,141,7.25,145,9.08c1.69.77,2.37,3.9,2.82,6a18.28,18.28,0,0,1,.39,5c-.51,7.54-8.65,41.28-10.09,40.81s12.29-37.29,4.13-41.73C138.91,17.35,133.62,21.94,132.63,20.55Z"/><path class="cls-1" d="M150.52,16.88c-.62-1.2,6.64-8.4,16.51-9.63,5-.63,13.81-.11,15.13,4.13,1.16,3.73-3.66,9.84-8.25,10.08-4.11.22-5.06-4.41-11-6C156.27,13.79,151,17.86,150.52,16.88Z"/><path class="cls-2" d="M210.16,67.27c-1.43-2,8.39-13.29,12.38-11.46,1.69.77,2.37,3.9,2.83,6a18.88,18.88,0,0,1,.38,5c-.51,7.54-8.65,41.29-10.08,40.82s12.28-37.3,4.12-41.74C216.44,64.07,211.16,68.67,210.16,67.27Z"/><path class="cls-2" d="M228.05,63.6c-.62-1.2,6.64-8.39,16.51-9.63,5-.63,13.81-.11,15.13,4.13,1.16,3.73-3.66,9.85-8.25,10.09-4.11.21-5.05-4.42-11-6C233.8,60.51,228.55,64.58,228.05,63.6Z"/><path class="cls-2" d="M363.66,79.23c-14.66-8.41-23-18.05-27.52-24.3-8.89-12.34-7.47-18-6.88-19.72,1.29-3.8,4.85-7.48,7.34-6.88,1.79.43,2.46,3.48,3.39,7.48a31.55,31.55,0,0,1,1.19,8.57C341.2,48.9,345.71,58.32,363.66,79.23Z"/><path class="cls-2" d="M363.66,29.25c-7.17-2.16-17.37,2-19.72,9.63-1.53,4.91.38,10.78,2.29,11,2.14.26,2.24-6.8,8.25-11.46,6.25-4.83,14-3.29,14.22-5.5C368.86,31.52,365.88,29.92,363.66,29.25Z"/><path class="cls-2" d="M332,54.47c-1.69.57-.18,4.35-2.29,9.63-2.94,7.36-9.55,9.17-8.71,11.47.73,2,6.66,2.92,9.63.45,2.35-2,1-4.55,4.12-9.17,1.81-2.7,2.94-2.83,3.21-4.58C338.58,58.45,334.05,53.79,332,54.47Z"/><path class="cls-2" d="M271.36,46.36c2.79-3.23,7.44-6.26,9.18-5,2.79,2-5.33,12.49-2.76,27.06.91,5.11,3.19,11.07,6.43,11.46,2,.25,3.3-1.7,4.58-.91,1.84,1.12.82,6.2-.17,7.9a7.62,7.62,0,0,1-.49.73A8.37,8.37,0,0,1,286,89.47c-1.51.89-11.06-3.8-16.05-14.22C266.16,67.25,264.34,54.49,271.36,46.36Z"/><path class="cls-2" d="M290.61,90.76c.76.39,15.33-18.48,13.76-40.35-.16-2.21-.73-10.13-3.21-10.55s-6.55,6.34-7.34,13.3c-.75,6.6,2,8.85,2.75,15.59C298,81.4,290.07,90.49,290.61,90.76Z"/><path class="cls-2" d="M197.22,57c4.26-3.43,1.55-21.28-4.59-23.23-5.9-1.88-13.44,11.42-18.34,20.07-7.21,12.71-16.3,28.73-10.55,42.24,4.21,9.89,13.85,12.46,14.68,12.67,10.49,2.61,23.64-4,24.3-12.67.44-5.72-4.57-12.63-10.09-13.73-7.82-1.56-12.5,9.4-16.51,7.39-6.08-3.06-4.54-33,5-37C187.37,50.23,193.57,60,197.22,57Z"/><path class="cls-3" d="M33.73,55c4-5.76,52.4,36.66,111.74,51.75,137.66,35,273.3-92.42,289.54-70.55,7.15,9.63-14.73,40.33-36.23,60.54C314.52,175.93,164.34,161.52,78.22,100,54.67,83.13,30.87,59.16,33.73,55Z"/><path class="cls-4" d="M215.34,128.85c23-12,55-17.67,58.7-10.09,5.6,11.59-57.83,48.36-94.93,63.74-7.3,3-12.14,4.63-13.76,2.75C160.74,179.89,182.37,146,215.34,128.85Z"/><path class="cls-5" d="M297.43,104.54c3.53-6.83,11.88-11.29,15.13-9.17,1.45.94,1.58,3.84,1.83,9.63.28,6.13.42,9.19-.91,11.46-2.83,4.84-10.67,8-15.14,5.05C293.55,118.33,294.83,109.56,297.43,104.54Z"/><path class="cls-5" d="M323.86,95.41c3.54-6.84,11.89-11.3,15.14-9.17,1.44.94,1.57,3.84,1.83,9.63.28,6.13.41,9.19-.91,11.46-2.83,4.83-10.67,8-15.14,5C320,109.2,321.27,100.43,323.86,95.41Z"/><path class="cls-5" d="M349.25,88.24c3.53-6.84,11.88-11.3,15.13-9.18,1.45,1,1.58,3.84,1.84,9.63.27,6.13.41,9.2-.92,11.47-2.83,4.83-10.67,8-15.13,5C345.37,102,346.65,93.25,349.25,88.24Z"/></g></g></svg>